<?xml version="1.0" encoding="utf-8"?>
<!-- Generator: Fusion 360, Shaper Origin Export Add-In, Version 1.7.0  -->
<svg xmlns="http://www.w3.org/2000/svg" xmlns:xlink="http://www.w3.org/1999/xlink" xmlns:shaper="http://www.shapertools.com/namespaces/shaper" shaper:fusionaddin="version:1.7.0" width="22cm" height="22.4479305cm" version="1.1" x="0cm" y="0cm" viewBox="0 0 22 22.4479305" enable-background="new 0 0 22 22.4479305" xml:space="preserve"><g id="Body_Body1"><path d="M14.8051331,-3.069589 L15.9866424,-1.8021519 A11,11 61.6788792 1,1 20.0618531,-5.6010771 L18.8202557,-6.9329724 A9.25,9.25 29.4828455 1,0 14.7605268,-3.1414372 L14.8051331,-3.069589z" transform="matrix(1,0,0,-1,0.2318978,-0.0375492)" fill="rgb(0,0,0)" shaper:cutDepth="0.1cm" stroke-linecap="round" stroke-linejoin="round" /></g><g id="Body_Body3"><path d="M13.7223744,-6.2631933 L14.7682323,-5.141273 A7.5,7.5 57.767872 1,1 16.8163411,-7.0505269 L15.7704832,-8.1724472 A6,6 33.516155 1,0 13.7223744,-6.2631933z" transform="matrix(1,0,0,-1,0.2318978,-0.0375492)" fill="rgb(0,0,0)" shaper:cutDepth="0.1cm" stroke-linecap="round" stroke-linejoin="round" /></g><g id="Body_Body4"><path d="M11.2852519,-11.5173357 L16.9835059,-5.4046632 18.542558,-5.764325 21.6110018,-2.4727216 19.2882206,-2.3457163 18.9987259,-0.0375492 15.9302821,-3.3291525 16.3983319,-4.8591621 10.7000779,-10.9718346 A0.4,0.4 137.0095538 1,1 11.2852519,-11.5173357z" transform="matrix(1,0,0,-1,0.2318978,-0.0375492)" fill="rgb(0,0,0)" shaper:cutDepth="0.1cm" stroke-linecap="round" stroke-linejoin="round" /></g><g id="Body_Body2"><path d="M11.1563717,-9.0158144 L12.480276,-7.5956261 A4.25,4.25 66.2426297 1,1 14.5283847,-9.5048801 L13.2044804,-10.9250683 A2.5,2.5 12.9537561 1,0 11.1563717,-9.0158144z" transform="matrix(1,0,0,-1,0.2318978,-0.0375492)" fill="rgb(0,0,0)" shaper:cutDepth="0.1cm" stroke-linecap="round" stroke-linejoin="round" /></g></svg>
